<?xml version="1.0" encoding="UTF-8" standalone="no"?>
<!DOCTYPE svg PUBLIC "-//W3C//DTD SVG 1.1//EN"
 "http://www.w3.org/Graphics/SVG/1.1/DTD/svg11.dtd">
<!-- Generated by graphviz version 2.38.0 (20140413.2041)
 -->
<!-- Title: %3 Pages: 1 -->
<svg width="350pt" height="332pt"
 viewBox="0.00 0.00 350.00 332.00" xmlns="http://www.w3.org/2000/svg" xmlns:xlink="http://www.w3.org/1999/xlink">
<g id="graph0" class="graph" transform="scale(1 1) rotate(0) translate(4 328)">
<title>%3</title>
<polygon fill="white" stroke="none" points="-4,4 -4,-328 346,-328 346,4 -4,4"/>
<!-- A -->
<g id="node1" class="node"><title>A</title>
<polygon fill="yellow" stroke="black" points="234,-324 180,-324 180,-288 234,-288 234,-324"/>
<text text-anchor="middle" x="207" y="-302.3" font-family="Times,serif" font-size="14.00">A</text>
</g>
<!-- B -->
<g id="node2" class="node"><title>B</title>
<polygon fill="none" stroke="black" points="162,-252 108,-252 108,-216 162,-216 162,-252"/>
<text text-anchor="middle" x="135" y="-230.3" font-family="Times,serif" font-size="14.00">B</text>
</g>
<!-- A&#45;&gt;B -->
<g id="edge1" class="edge"><title>A&#45;&gt;B</title>
<path fill="none" stroke="black" d="M181.777,-280.478C172.14,-271.108 161.368,-260.636 152.593,-252.104"/>
<polygon fill="black" stroke="black" points="179.592,-283.235 189.202,-287.697 184.472,-278.216 179.592,-283.235"/>
</g>
<!-- C -->
<g id="node3" class="node"><title>C</title>
<polygon fill="yellow" stroke="black" points="270,-252 216,-252 216,-216 270,-216 270,-252"/>
<text text-anchor="middle" x="243" y="-230.3" font-family="Times,serif" font-size="14.00">C</text>
</g>
<!-- A&#45;&gt;C -->
<g id="edge2" class="edge"><title>A&#45;&gt;C</title>
<path fill="none" stroke="black" d="M220.476,-278.797C225.066,-269.871 230.076,-260.129 234.203,-252.104"/>
<polygon fill="black" stroke="black" points="217.36,-277.203 215.899,-287.697 223.585,-280.404 217.36,-277.203"/>
</g>
<!-- D -->
<g id="node4" class="node"><title>D</title>
<polygon fill="none" stroke="black" points="54,-180 0,-180 0,-144 54,-144 54,-180"/>
<text text-anchor="middle" x="27" y="-158.3" font-family="Times,serif" font-size="14.00">D</text>
</g>
<!-- B&#45;&gt;D -->
<g id="edge3" class="edge"><title>B&#45;&gt;D</title>
<path fill="none" stroke="black" d="M99.9954,-210.312C84.8969,-200.526 67.5279,-189.268 53.5213,-180.19"/>
<polygon fill="black" stroke="black" points="98.285,-213.374 108.58,-215.876 102.092,-207.5 98.285,-213.374"/>
</g>
<!-- E -->
<g id="node5" class="node"><title>E</title>
<polygon fill="none" stroke="black" points="126,-180 72,-180 72,-144 126,-144 126,-180"/>
<text text-anchor="middle" x="99" y="-158.3" font-family="Times,serif" font-size="14.00">E</text>
</g>
<!-- B&#45;&gt;E -->
<g id="edge4" class="edge"><title>B&#45;&gt;E</title>
<path fill="none" stroke="black" d="M121.524,-206.797C116.934,-197.871 111.924,-188.129 107.797,-180.104"/>
<polygon fill="black" stroke="black" points="118.415,-208.404 126.101,-215.697 124.64,-205.203 118.415,-208.404"/>
</g>
<!-- F -->
<g id="node6" class="node"><title>F</title>
<polygon fill="none" stroke="black" points="198,-180 144,-180 144,-144 198,-144 198,-180"/>
<text text-anchor="middle" x="171" y="-158.3" font-family="Times,serif" font-size="14.00">F</text>
</g>
<!-- B&#45;&gt;F -->
<g id="edge5" class="edge"><title>B&#45;&gt;F</title>
<path fill="none" stroke="black" d="M148.476,-206.797C153.066,-197.871 158.076,-188.129 162.203,-180.104"/>
<polygon fill="black" stroke="black" points="145.36,-205.203 143.899,-215.697 151.585,-208.404 145.36,-205.203"/>
</g>
<!-- G -->
<g id="node7" class="node"><title>G</title>
<polygon fill="yellow" stroke="black" points="270,-180 216,-180 216,-144 270,-144 270,-180"/>
<text text-anchor="middle" x="243" y="-158.3" font-family="Times,serif" font-size="14.00">G</text>
</g>
<!-- C&#45;&gt;G -->
<g id="edge6" class="edge"><title>C&#45;&gt;G</title>
<path fill="none" stroke="black" d="M243,-205.665C243,-197.054 243,-187.791 243,-180.104"/>
<polygon fill="black" stroke="black" points="239.5,-205.697 243,-215.697 246.5,-205.697 239.5,-205.697"/>
</g>
<!-- H -->
<g id="node8" class="node"><title>H</title>
<polygon fill="none" stroke="black" points="342,-180 288,-180 288,-144 342,-144 342,-180"/>
<text text-anchor="middle" x="315" y="-158.3" font-family="Times,serif" font-size="14.00">H</text>
</g>
<!-- C&#45;&gt;H -->
<g id="edge7" class="edge"><title>C&#45;&gt;H</title>
<path fill="none" stroke="black" d="M268.223,-208.478C277.86,-199.108 288.632,-188.636 297.407,-180.104"/>
<polygon fill="black" stroke="black" points="265.528,-206.216 260.798,-215.697 270.408,-211.235 265.528,-206.216"/>
</g>
<!-- I -->
<g id="node9" class="node"><title>I</title>
<polygon fill="none" stroke="black" points="54,-108 0,-108 0,-72 54,-72 54,-108"/>
<text text-anchor="middle" x="27" y="-86.3" font-family="Times,serif" font-size="14.00">I</text>
</g>
<!-- D&#45;&gt;I -->
<g id="edge8" class="edge"><title>D&#45;&gt;I</title>
<path fill="none" stroke="black" d="M27,-133.665C27,-125.054 27,-115.791 27,-108.104"/>
<polygon fill="black" stroke="black" points="23.5001,-133.697 27,-143.697 30.5001,-133.697 23.5001,-133.697"/>
</g>
<!-- J -->
<g id="node10" class="node"><title>J</title>
<polygon fill="yellow" stroke="black" points="234,-108 180,-108 180,-72 234,-72 234,-108"/>
<text text-anchor="middle" x="207" y="-86.3" font-family="Times,serif" font-size="14.00">J</text>
</g>
<!-- G&#45;&gt;J -->
<g id="edge9" class="edge"><title>G&#45;&gt;J</title>
<path fill="none" stroke="black" d="M229.524,-134.797C224.934,-125.871 219.924,-116.129 215.797,-108.104"/>
<polygon fill="black" stroke="black" points="226.415,-136.404 234.101,-143.697 232.64,-133.203 226.415,-136.404"/>
</g>
<!-- K -->
<g id="node11" class="node"><title>K</title>
<polygon fill="none" stroke="black" points="306,-108 252,-108 252,-72 306,-72 306,-108"/>
<text text-anchor="middle" x="279" y="-86.3" font-family="Times,serif" font-size="14.00">K</text>
</g>
<!-- G&#45;&gt;K -->
<g id="edge10" class="edge"><title>G&#45;&gt;K</title>
<path fill="none" stroke="black" d="M256.476,-134.797C261.066,-125.871 266.076,-116.129 270.203,-108.104"/>
<polygon fill="black" stroke="black" points="253.36,-133.203 251.899,-143.697 259.585,-136.404 253.36,-133.203"/>
</g>
<!-- L -->
<g id="node12" class="node"><title>L</title>
<polygon fill="none" stroke="black" points="198,-36 144,-36 144,-0 198,-0 198,-36"/>
<text text-anchor="middle" x="171" y="-14.3" font-family="Times,serif" font-size="14.00">L</text>
</g>
<!-- J&#45;&gt;L -->
<g id="edge11" class="edge"><title>J&#45;&gt;L</title>
<path fill="none" stroke="black" d="M193.524,-62.7967C188.934,-53.871 183.924,-44.1291 179.797,-36.1043"/>
<polygon fill="black" stroke="black" points="190.415,-64.4045 198.101,-71.6966 196.64,-61.203 190.415,-64.4045"/>
</g>
<!-- M -->
<g id="node13" class="node"><title>M</title>
<polygon fill="none" stroke="black" points="270,-36 216,-36 216,-0 270,-0 270,-36"/>
<text text-anchor="middle" x="243" y="-14.3" font-family="Times,serif" font-size="14.00">M</text>
</g>
<!-- J&#45;&gt;M -->
<g id="edge12" class="edge"><title>J&#45;&gt;M</title>
<path fill="none" stroke="black" d="M220.476,-62.7967C225.066,-53.871 230.076,-44.1291 234.203,-36.1043"/>
<polygon fill="black" stroke="black" points="217.36,-61.203 215.899,-71.6966 223.585,-64.4045 217.36,-61.203"/>
</g>
</g>
</svg>
